<?xml version="1.0" encoding="UTF-8"?>
<!-- Generator: Adobe Illustrator 24.0.1, SVG Export Plug-In . SVG Version: 6.00 Build 0) -->
<svg xmlns="http://www.w3.org/2000/svg" xmlns:xlink="http://www.w3.org/1999/xlink" id="Layer_1" x="0px" y="0px" width="535px" height="122px" viewBox="0 0 535 122" style="enable-background:new 0 0 535 122;" xml:space="preserve"> <style type="text/css"> .st0{fill:#FFFFFF;} .st1{fill:#00AEEF;} .st2{fill:#636466;} </style> <path class="st0" d="M535.3,96c0,13.3-9,24-20,24H20C9,120,0,109.3,0,96V24C0,10.7,9,0,20,0h495.3c11,0,20,10.7,20,24L535.3,96 L535.3,96z"/> <path class="st1" d="M501.2,16.9c0,0,0,21.3,0,25.7c-4,0-18.4,0-22.4,0c0-4.4,0-25.7,0-25.7h-33.6c0,0,0,21.3,0,25.7 c-4,0-18.4,0-22.4,0c0-4.4,0-25.7,0-25.7h-33.6c0,0,0,21.3,0,25.7c-4,0-18.4,0-22.4,0c0-4.4,0-25.7,0-25.7h-33.6c0,0,0,21.3,0,25.7 c-4,0-18.4,0-22.4,0c0-4.4,0-25.7,0-25.7H277v31.3h5.6c0,0,0-21.3,0-25.7c4,0,18.4,0,22.4,0c0,4.4,0,25.7,0,25.7h33.6 c0,0,0-21.3,0-25.7c4,0,18.4,0,22.4,0c0,4.4,0,25.7,0,25.7h33.6c0,0,0-21.3,0-25.7c4,0,18.4,0,22.4,0c0,4.4,0,25.7,0,25.7h33.6 c0,0,0-21.3,0-25.7c4,0,18.4,0,22.4,0c0,4.4,0,25.7,0,25.7h33.6V16.9H501.2L501.2,16.9z"/> <path d="M172.4,17.7c-2.7-0.6-6.9-0.8-10.5-0.8h-50.3v58.3h17.9V30.9h31.6c3.3,0,5.2,1.2,5.2,4.6c0,3.3-1.9,4.5-5.2,4.5h-15.8 l-7.8,8.6v3.5h25c3.6,0,8.2-0.4,10.8-0.9c7.9-1.6,10.7-7.6,10.7-16.1c0-0.9,0-1.8,0-2.8C184.2,23.6,180.3,19.3,172.4,17.7 L172.4,17.7z"/> <path d="M95.6,45.8v-0.2c5.3-1.5,9.2-3.4,9.2-13.4c0-11.4-7.4-15.3-22.6-15.3H27.4v58.3h60.7c10.9,0,19-2.7,19-15.5 C107,50.9,103.9,46.8,95.6,45.8L95.6,45.8z M80.6,61.2H46.5V30.9h33.7c3.5,0,5.6,1.2,5.6,4.6c0,3.3-2.1,4.5-5.6,4.5H62.9L55,48.6 v3.4h25.6c4.1,0,6.9,0.9,6.9,4.8C87.5,60.3,84.7,61.2,80.6,61.2L80.6,61.2z"/> <path d="M248.9,41.1v34.1h16.5V39.4c0-13.1-9.6-22.5-25.4-22.5h-50.5v58.3h16.6l0-43.6h13.2v43.6h16.2V31.6 C248.9,31.6,248.9,41.1,248.9,41.1z"/> <polygon points="277,57.7 282.3,57.7 286.2,69 290.1,57.7 295.4,57.7 295.4,75.2 292,75.2 292,62.6 292,62.6 287.5,75.2 284.9,75.2 280.4,62.6 280.4,62.6 280.4,75.2 277,75.2 "/> <polygon points="301.8,57.7 305.2,57.7 305.2,75.2 301.8,75.2 "/> <path d="M311.3,63.8c0-5.1,1.8-6.3,4.9-6.3h4c4.9,0,5.5,1.6,5.5,6.6h-3.4v-0.5c0-1.3-0.6-1.6-1.6-1.6H317c-1.8,0-2.2,1.3-2.2,3.5 v1.9c0,2.5,0.3,3.5,2,3.5h3.7c1.6,0,2-0.2,2-2.4h3.4v1.6c0,2.9-0.7,5.3-4.1,5.3h-5.5c-3.1,0-4.9-1.2-4.9-6.3L311.3,63.8L311.3,63.8z "/> <path d="M331.9,57.7h10.4c2.6,0,3.4,2.1,3.4,5.2V64c0,2.4-0.3,3.7-1.9,4.3v0c1,0.3,1.9,1,1.9,3.9v3h-3.4v-2.1c0-1.8-0.3-2.4-1.4-2.4 h-5.4v4.5h-3.4V57.7L331.9,57.7z M335.4,66.3h5.7c0.9,0,1.3-0.6,1.3-1.8v-0.6c0-1.5-0.5-1.8-1.6-1.8h-5.4L335.4,66.3L335.4,66.3z"/> <path d="M351.6,63.8c0-5.1,1.8-6.3,4.9-6.3h5.5c3.1,0,4.9,1.2,4.9,6.3v5.2c0,5.1-1.8,6.3-4.9,6.3h-5.5c-3.1,0-4.9-1.2-4.9-6.3V63.8 L351.6,63.8z M355.1,67.4c0,2.5,0.3,3.5,2,3.5h4.4c1.6,0,2-1,2-3.5v-1.9c0-2.2-0.3-3.5-2.2-3.5h-4c-1.8,0-2.2,1.3-2.2,3.5 L355.1,67.4L355.1,67.4z"/> <path d="M373.5,69.5h3.4c0,1.9,0.5,2,1.5,2h4.2c0.7,0,1.5-0.1,1.5-1.5c0-1.5-0.4-1.6-4.8-1.6c-5.2,0-5.8-1-5.8-5.3 c0-3.2,0.2-5.6,4.5-5.6h4.8c4,0,4.3,2.1,4.3,5.2v0.6h-3.4c0-1.3-0.1-1.8-1.7-1.8h-3.8c-0.8,0-1.3,0.4-1.3,1.4c0,1.5,0.4,1.6,4.1,1.5 c5.3,0,6.6,0.5,6.6,5.6c0,4.7-1,5.5-5.6,5.5h-4.2c-3.1,0-4.4-0.9-4.4-4.7L373.5,69.5L373.5,69.5z"/> <polygon points="397.7,69.1 391.5,57.7 395.7,57.7 399.4,64.9 403.2,57.7 407.4,57.7 401.2,69.1 401.2,75.2 397.7,75.2 "/> <path d="M411.8,69.5h3.4c0,1.9,0.5,2,1.5,2h4.2c0.7,0,1.5-0.1,1.5-1.5c0-1.5-0.4-1.6-4.8-1.6c-5.2,0-5.8-1-5.8-5.3 c0-3.2,0.2-5.6,4.5-5.6h4.8c4,0,4.3,2.1,4.3,5.2v0.6h-3.4c0-1.3-0.1-1.8-1.7-1.8h-3.8c-0.8,0-1.3,0.4-1.3,1.4c0,1.5,0.4,1.6,4.1,1.5 c5.3,0,6.6,0.5,6.6,5.6c0,4.7-1,5.5-5.6,5.5h-4.2c-3.1,0-4.4-0.9-4.4-4.7L411.8,69.5L411.8,69.5z"/> <polygon points="431,57.7 444.1,57.7 444.1,62.1 439.3,62.1 439.3,75.2 435.9,75.2 435.9,62.1 431,62.1 "/> <polygon points="449.6,57.7 461.9,57.7 461.9,61.8 453.1,61.8 453.1,64.6 461.4,64.6 461.4,68.2 453.1,68.2 453.1,71 462.1,71 462.1,75.2 449.6,75.2 "/> <polygon points="468.2,57.7 473.5,57.7 477.4,69 481.3,57.7 486.6,57.7 486.6,75.2 483.2,75.2 483.2,62.6 483.2,62.6 478.7,75.2 476.1,75.2 471.6,62.6 471.6,62.6 471.6,75.2 468.2,75.2 "/> <path d="M492.6,69.5h3.4c0,1.9,0.5,2,1.5,2h4.2c0.7,0,1.5-0.1,1.5-1.5c0-1.5-0.4-1.6-4.8-1.6c-5.2,0-5.8-1-5.8-5.3 c0-3.2,0.2-5.6,4.5-5.6h4.8c4,0,4.3,2.1,4.3,5.2v0.6h-3.4c0-1.3-0.1-1.8-1.7-1.8h-3.8c-0.8,0-1.3,0.4-1.3,1.4c0,1.5,0.4,1.6,4.1,1.5 c5.3,0,6.6,0.5,6.6,5.6c0,4.7-1,5.5-5.6,5.5H497c-3.1,0-4.4-0.9-4.4-4.7L492.6,69.5L492.6,69.5z"/> <g> <path class="st2" d="M32.9,106.7c-0.1,3.3,1.9,5.5,5.2,5.5c2.8,0,5.4-1.7,5.4-4.7c0-3-2.2-4.4-5-4.4h-1.6v-1.6h1.6 c2,0,4.3-1.2,4.3-3.8c0-2.8-2.1-4-4.6-4c-3.1,0-4.8,2.2-4.8,5.3h-1.9c0-4,2.6-6.9,6.6-6.9c3.3,0,6.5,1.6,6.5,5.3 c0,2.3-1.3,4.1-3.5,4.7v0.1c2.7,0.5,4.3,2.4,4.3,5.2c0,4.1-3.4,6.4-7.2,6.4c-4.3,0-7.5-2.6-7.2-7.1H32.9z"/> <path class="st2" d="M55.7,107.4c0.1,2.9,2.3,4.9,5.2,4.9c3.2,0,5.2-2.7,5.2-5.7c0-3.1-2.2-5.5-5.4-5.5c-1.9,0-3.7,0.9-4.7,2.5 h-1.6l2-10.9h10.5v1.7h-9.2l-1.4,7l0.1,0.1c1-1.2,2.8-2,4.4-2c4.3,0,7,3,7,7.3c0,4.1-3.3,7.1-7.3,7.1c-3.9,0-6.8-2.5-6.9-6.5H55.7z "/> <path class="st2" d="M97.8,104.6L89.4,92h2.4l7,10.9l7-10.9h2.4l-8.5,12.6v8.8h-2V104.6z"/> <path class="st2" d="M116.2,92H131v1.7h-12.7v7.7h11.9v1.7h-11.9v8.5h12.9v1.7h-14.9V92z"/> <path class="st2" d="M146.3,92h2.3l8.4,21.4h-2.2l-2.6-6.7h-9.8l-2.6,6.7h-2.2L146.3,92z M143,105h8.4l-4.1-11L143,105z"/> <path class="st2" d="M164.9,92h9.8c3.5,0,6.5,1.7,6.5,5.6c0,2.7-1.4,4.9-4.2,5.5v0.1c2.8,0.4,3.6,2.3,3.7,4.8 c0.1,1.5,0.1,4.4,1,5.5h-2.2c-0.5-0.8-0.5-2.4-0.6-3.3c-0.2-3-0.4-6.3-4.3-6.2h-7.7v9.5h-2V92z M166.9,102.2h7.6 c2.5,0,4.6-1.6,4.6-4.2c0-2.6-1.6-4.3-4.6-4.3h-7.6V102.2z"/> <path class="st2" d="M191.9,106.4c-0.1,4.4,3.1,5.8,7,5.8c2.2,0,5.7-1.2,5.7-4.3c0-2.4-2.4-3.4-4.4-3.9l-4.8-1.2 c-2.5-0.6-4.8-1.8-4.8-5.2c0-2.1,1.3-6,7.4-6c4.2,0,7.9,2.3,7.9,6.7h-2c-0.1-3.3-2.8-4.9-5.8-4.9c-2.8,0-5.4,1.1-5.4,4.3 c0,2,1.5,2.8,3.2,3.3l5.2,1.3c3,0.8,5.5,2.1,5.5,5.6c0,1.5-0.6,6.1-8.2,6.1c-5.1,0-8.8-2.3-8.5-7.5H191.9z"/> <path class="st2" d="M235.5,97.4c3,0,5.4,2.4,5.4,5.3c0,3-2.4,5.4-5.4,5.4c-3,0-5.3-2.4-5.3-5.4C230.1,99.7,232.5,97.4,235.5,97.4z "/> <path class="st2" d="M266.2,96.5c3.3-0.1,5.3-0.2,5.9-4h1.5v21h-1.9V97.8h-5.6V96.5z"/> <path class="st2" d="M289.4,108.4c0.3,2.3,2,3.9,4.4,3.9c4.9,0,5.8-5.6,5.8-9.4h-0.1c-1,2.1-3.2,3.5-5.6,3.5c-4.2,0-6.9-2.9-6.9-7 c0-4.1,3-7.1,7.1-7.1c5.1,0,7.3,3,7.3,11.2c0,2.5-0.6,10.5-7.5,10.5c-3.7,0-6-1.8-6.4-5.5H289.4z M299.2,99.2c0-3-1.6-5.4-5.2-5.4 c-3,0-5,2.5-5,5.4c0,3.1,1.9,5.5,5.1,5.5C297.3,104.8,299.2,102.3,299.2,99.2z"/> <path class="st2" d="M320,102.1L320,102.1L320,102.1c2.7,0.6,4.3,2.6,4.3,5.4c0,4.2-3.3,6.3-7.2,6.3s-7.2-2.1-7.2-6.3 c0.1-2.7,1.7-4.9,4.3-5.4v-0.1c-2.2-0.7-3.4-2.3-3.4-4.6c0-3.6,3.3-5.2,6.4-5.2c3.1,0,6.4,1.6,6.4,5.2 C323.4,99.8,322.1,101.5,320,102.1z M322.4,107.5c0-3-2.5-4.6-5.3-4.6c-2.9-0.1-5.3,1.5-5.3,4.6c0,3.2,2.4,4.7,5.3,4.7 C320,112.3,322.4,110.8,322.4,107.5z M321.5,97.5c0-2.4-2-3.7-4.5-3.7c-2.3,0-4.5,1.3-4.5,3.7c0,2.8,2.3,4,4.5,3.9 C319.3,101.5,321.5,100.2,321.5,97.5z"/> <path class="st2" d="M334.3,107.4c0.1,2.9,2.3,4.9,5.2,4.9c3.2,0,5.2-2.7,5.2-5.7c0-3.1-2.2-5.5-5.4-5.5c-1.9,0-3.7,0.9-4.7,2.5 h-1.6l2-10.9h10.5v1.7h-9.2l-1.3,7l0.1,0.1c1-1.2,2.8-2,4.4-2c4.3,0,7,3,7,7.3c0,4.1-3.3,7.1-7.3,7.1c-3.9,0-6.8-2.5-6.9-6.5H334.3 z"/> <path class="st2" d="M373.2,97.9h3.1v1.6h-3.1V110c0,1.2,0.2,2,1.5,2c0.5,0,1.1,0,1.6-0.1v1.6c-0.6,0-1.1,0.1-1.7,0.1 c-2.5,0-3.4-0.8-3.4-3.5V99.5h-2.7v-1.6h2.7v-4.6h1.9V97.9z"/> <path class="st2" d="M398.9,105.7c0,4.4-2.6,8.2-7.3,8.2c-4.7,0-7.3-3.8-7.3-8.2c0-4.4,2.6-8.2,7.3-8.2 C396.3,97.5,398.9,101.2,398.9,105.7z M386.2,105.7c0,3.3,1.8,6.6,5.4,6.6s5.4-3.3,5.4-6.6s-1.8-6.6-5.4-6.6 S386.2,102.4,386.2,105.7z"/> <path class="st2" d="M435.2,113.4h-13.8c0.1-6.2,6.5-7.8,10.1-11.3c1.1-1.2,1.7-2.3,1.7-4c0-2.7-2.2-4.3-4.7-4.3 c-3.5,0-4.8,2.8-4.7,5.8h-1.9c-0.1-4.3,2.2-7.4,6.7-7.4c3.7,0,6.5,2,6.5,5.9c0,3.5-2.5,5.7-5.3,7.5c-2,1.4-5.8,3.2-6.3,6.1h11.7 V113.4z"/> <path class="st2" d="M458.6,103c0,4.9-1.2,10.8-7.3,10.8c-6.1,0-7.3-5.9-7.3-10.8c0-4.9,1.2-10.8,7.3-10.8 C457.4,92.2,458.6,98.2,458.6,103z M445.9,103c0,3.7,0.6,9.2,5.4,9.2s5.4-5.6,5.4-9.2c0-3.6-0.6-9.2-5.4-9.2S445.9,99.4,445.9,103z "/> <path class="st2" d="M480.5,113.4h-13.8c0.1-6.2,6.5-7.8,10.1-11.3c1.1-1.2,1.7-2.3,1.7-4c0-2.7-2.2-4.3-4.7-4.3 c-3.5,0-4.8,2.8-4.7,5.8h-1.9c-0.1-4.3,2.2-7.4,6.7-7.4c3.7,0,6.5,2,6.5,5.9c0,3.5-2.5,5.7-5.3,7.5c-2,1.4-5.8,3.2-6.3,6.1h11.7 V113.4z"/> <path class="st2" d="M504,103c0,4.9-1.2,10.8-7.3,10.8c-6.1,0-7.3-5.9-7.3-10.8c0-4.9,1.2-10.8,7.3-10.8 C502.8,92.2,504,98.2,504,103z M491.2,103c0,3.7,0.6,9.2,5.4,9.2s5.4-5.6,5.4-9.2c0-3.6-0.6-9.2-5.4-9.2S491.2,99.4,491.2,103z"/> </g> </svg>