<svg height="512pt" viewBox="0 0 512 512" width="512pt" xmlns="http://www.w3.org/2000/svg"><path d="m512 463.390625c0 26.847656-21.761719 48.609375-48.609375 48.609375h-414.78125c-26.847656 0-48.609375-21.761719-48.609375-48.609375v-414.78125c0-26.847656 21.761719-48.609375 48.609375-48.609375h414.78125c26.847656 0 48.609375 21.761719 48.609375 48.609375zm0 0" fill="#cdcdcd"/><path d="m512 47.128906c0-26.027344-21.101562-47.128906-47.128906-47.128906h-37.457032c26.027344 0 47.128907 21.101562 47.128907 47.128906v417.742188c0 26.027344-21.101563 47.128906-47.128907 47.128906h37.457032c26.027344 0 47.128906-21.101562 47.128906-47.128906zm0 0" fill="#bebebe"/><path d="m256 124.621094c-82.886719 0-150.074219 67.191406-150.074219 150.078125h300.148438c0-82.886719-67.1875-150.078125-150.074219-150.078125zm0 0" fill="#5a5a5a"/><path d="m256 124.621094c-6.34375 0-12.59375.398437-18.726562 1.164062 74.042968 9.21875 131.347656 72.371094 131.347656 148.914063h37.457031c-.003906-82.886719-67.191406-150.078125-150.078125-150.078125zm0 0" fill="#464646"/><path d="m372.691406 180.332031 39.527344-39.527343c-37.734375-43.988282-93.71875-71.863282-156.21875-71.863282v55.679688c47.128906 0 89.175781 21.730468 116.691406 55.710937zm0 0" fill="#f76937"/><path d="m256 124.621094v-55.679688c-62.5 0-118.484375 27.875-156.21875 71.863282l39.527344 39.527343c27.515625-33.980469 69.5625-55.710937 116.691406-55.710937zm0 0" fill="#ffd508"/><path d="m412.21875 140.804688-39.527344 39.527343c20.871094 25.78125 33.382813 58.609375 33.382813 94.367188h48.296875c1.96875 0 3.855468-.800781 5.222656-2.21875s2.097656-3.332031 2.027344-5.300781c-1.734375-48.195313-20.046875-92.160157-49.402344-126.375zm0 0" fill="#40c1fa"/><path d="m99.78125 140.804688c-29.355469 34.214843-47.667969 78.179687-49.402344 126.375-.070312 1.96875.664063 3.878906 2.03125 5.296874 1.367188 1.417969 3.25 2.222657 5.21875 2.222657h48.296875c0-35.757813 12.511719-68.585938 33.382813-94.363281zm0 0" fill="#72e4a0"/><path d="m336.9375 291.390625c0 44.699219-36.234375 80.9375-80.9375 80.9375s-80.9375-36.238281-80.9375-80.9375c0-44.703125 36.234375-80.941406 80.9375-80.941406s80.9375 36.238281 80.9375 80.941406zm0 0" fill="#ffd508"/><path d="m256 210.449219c-5.683594 0-11.226562.59375-16.578125 1.707031 36.75 7.648438 64.359375 40.214844 64.359375 79.234375 0 39.015625-27.609375 71.582031-64.359375 79.230469 5.351563 1.113281 10.894531 1.707031 16.578125 1.707031 44.699219 0 80.9375-36.238281 80.9375-80.9375 0-44.703125-36.238281-80.941406-80.9375-80.941406zm0 0" fill="#eec707"/><path d="m278.519531 246.785156c1.097657-1.667968-.097656-3.886718-2.09375-3.886718h-28.648437c-.921875 0-1.765625.503906-2.207032 1.3125l-25.019531 46.21875c-.902343 1.671874.308594 3.703124 2.210938 3.703124l23.535156-.039062c1.789063 0 3.003906 1.8125 2.324219 3.464844l-12.628906 30.679687c-1.046876 2.535157 2.15625 4.667969 4.09375 2.726563l49.105468-49.269532c1.578125-1.582031.457032-4.277343-1.777344-4.277343h-24.421874c-1.996094 0-3.191407-2.222657-2.09375-3.890625zm0 0" fill="#f76937"/><g fill="#5a5a5a"><path d="m177.890625 413.863281h-91.308594c-4.140625 0-7.5-3.359375-7.5-7.5 0-4.144531 3.359375-7.5 7.5-7.5h91.308594c4.140625 0 7.5 3.355469 7.5 7.5 0 4.140625-3.359375 7.5-7.5 7.5zm0 0"/><path d="m425.417969 413.863281h-91.308594c-4.140625 0-7.5-3.359375-7.5-7.5 0-4.144531 3.359375-7.5 7.5-7.5h91.308594c4.144531 0 7.5 3.355469 7.5 7.5 0 4.140625-3.355469 7.5-7.5 7.5zm0 0"/><path d="m46.476562 478.695312c-4.140624 0-7.5-3.355468-7.5-7.5v-11.753906c0-4.144531 3.359376-7.5 7.5-7.5 4.140626 0 7.5 3.355469 7.5 7.5v11.753906c0 4.144532-3.359374 7.5-7.5 7.5zm0 0"/><path d="m46.476562 60.058594c-4.140624 0-7.5-3.355469-7.5-7.5v-11.753906c0-4.144532 3.359376-7.5 7.5-7.5 4.140626 0 7.5 3.355468 7.5 7.5v11.753906c0 4.140625-3.359374 7.5-7.5 7.5zm0 0"/><path d="m465.523438 478.695312c-4.140626 0-7.5-3.355468-7.5-7.5v-11.753906c0-4.144531 3.359374-7.5 7.5-7.5 4.144531 0 7.5 3.355469 7.5 7.5v11.753906c0 4.144532-3.355469 7.5-7.5 7.5zm0 0"/><path d="m465.523438 60.058594c-4.140626 0-7.5-3.355469-7.5-7.5v-11.753906c0-4.144532 3.359374-7.5 7.5-7.5 4.144531 0 7.5 3.355468 7.5 7.5v11.753906c0 4.140625-3.355469 7.5-7.5 7.5zm0 0"/></g></svg>